<svg width="485" height="388" viewBox="0 0 485 388" fill="none" xmlns="http://www.w3.org/2000/svg">
<path d="M248.414 361.627C344.047 361.627 421.573 284.032 421.573 188.314C421.573 92.5954 344.047 15.0004 248.414 15.0004C152.782 15.0004 75.2559 92.5954 75.2559 188.314C75.2559 284.032 152.782 361.627 248.414 361.627Z" fill="#EAEEF9"/>
<path d="M453.687 227.672C460.999 227.672 466.926 221.74 466.926 214.421C466.926 207.102 460.999 201.17 453.687 201.17C446.375 201.17 440.447 207.102 440.447 214.421C440.447 221.74 446.375 227.672 453.687 227.672Z" fill="#EAEEF9"/>
<path d="M90.5852 69.1794C95.3957 69.1794 99.2954 65.2762 99.2954 60.4614C99.2954 55.6466 95.3957 51.7434 90.5852 51.7434C85.7747 51.7434 81.875 55.6466 81.875 60.4614C81.875 65.2762 85.7747 69.1794 90.5852 69.1794Z" fill="#EAEEF9"/>
<path d="M233.781 329.946C233.781 346.336 226.813 360.982 215.664 371.443C212.528 374.233 209.392 376.674 205.56 378.767C197.198 383.649 187.443 386.438 176.991 386.438C166.538 386.438 156.783 383.649 148.421 378.767C147.028 378.069 145.982 377.372 144.589 376.325C129.956 366.213 120.2 349.125 120.2 329.946C120.2 298.561 145.634 273.453 176.642 273.453C208.347 273.105 233.781 298.561 233.781 329.946Z" fill="#DCE2F0"/>
<path d="M165.493 342.499C166.19 343.196 166.887 344.242 167.932 344.94C168.629 345.637 169.326 345.986 170.023 346.683C170.371 347.032 171.068 347.381 171.416 347.73C171.416 347.73 171.765 347.73 171.765 348.078L172.113 348.427V353.309C172.113 353.309 172.113 353.309 171.765 352.96C171.416 352.612 170.719 352.263 170.371 351.914C169.674 351.565 168.977 350.868 168.28 350.519C167.932 350.519 167.932 350.171 167.584 350.171C165.145 348.776 163.054 347.381 163.054 345.637C163.403 344.94 164.1 343.894 165.493 342.499ZM214.967 369.699C212.877 365.166 209.044 360.632 204.166 358.191C201.728 357.145 198.94 356.099 196.153 356.099C195.456 356.099 194.411 356.099 193.714 356.099C193.366 356.099 193.017 356.099 192.669 356.099C188.836 355.75 188.488 355.053 188.488 355.053V347.032C190.927 344.94 193.366 342.499 195.456 340.058C197.198 337.617 198.592 334.827 199.289 331.34C202.424 330.642 204.515 327.853 204.166 324.365C204.166 322.971 203.121 321.576 203.121 320.181C203.121 319.483 203.121 318.786 203.121 318.088C203.121 317.74 203.121 317.042 203.121 316.694C203.121 316.345 203.121 315.647 203.121 315.299C202.773 312.858 202.076 310.417 200.682 307.627C196.501 299.955 188.836 295.073 179.778 295.073C178.036 295.073 176.294 295.422 174.552 295.77C171.416 296.468 168.28 297.863 165.842 299.955C165.493 300.304 164.796 300.652 164.448 301.35L164.1 301.699C161.312 304.488 158.873 307.627 157.828 311.463C156.435 315.299 156.435 319.135 156.783 322.971C156.783 322.971 156.783 322.971 156.783 323.319V323.668C156.783 324.365 157.131 324.365 156.783 324.714C156.783 325.063 156.435 325.063 156.435 325.412C155.738 326.458 155.389 327.853 156.086 329.945C157.48 333.432 159.57 333.083 162.009 334.827C162.009 334.827 161.661 334.827 161.661 335.176L159.222 335.873C148.073 339.36 144.24 348.776 149.118 354.704C150.86 356.796 153.647 358.54 157.828 359.586C156.783 359.586 155.738 360.283 155.041 360.981C150.163 364.817 147.028 370.745 146.331 376.325C146.331 376.673 146.331 377.022 146.331 377.371C147.724 378.068 148.77 379.114 150.163 379.812H205.56C209.044 377.719 212.528 375.278 215.664 372.489C215.315 370.745 215.315 370.048 214.967 369.699Z" fill="white"/>
<path d="M215.664 371.443C212.529 374.233 209.393 376.674 205.56 378.766C197.199 383.649 187.443 386.438 176.991 386.438C166.539 386.438 156.783 383.649 148.422 378.766C147.028 378.069 145.983 377.372 144.589 376.325C144.589 375.977 144.589 375.628 144.589 375.279C145.286 369.7 148.422 363.772 153.299 359.936C153.996 359.238 155.041 358.889 156.087 358.541C151.906 357.843 149.118 356.1 147.376 353.659H160.616C164.448 358.889 170.371 362.028 177.339 362.028C183.262 362.028 188.488 359.587 192.321 355.751C192.669 355.751 193.018 355.751 193.366 355.751C194.063 355.751 194.76 355.751 195.805 355.751C198.592 355.751 201.379 356.448 203.818 357.843C208.696 360.284 212.18 364.469 214.619 369.351C215.316 370.048 215.316 370.746 215.664 371.443Z" fill="#EAEEF9"/>
<path d="M188.837 347.033V354.356L166.887 355.054L167.932 350.172C168.281 350.172 168.281 350.52 168.629 350.52C169.326 350.869 170.023 351.567 170.719 351.915C171.068 352.264 171.416 352.613 172.113 352.961C172.113 352.961 172.461 352.961 172.461 353.31V348.428L172.113 348.079C175.946 350.172 181.172 351.567 188.837 347.033Z" fill="url(#paint0_linear_14_941)"/>
<path d="M203.121 316.694C198.94 318.089 194.063 318.787 189.533 318.438C182.217 317.74 175.249 314.951 169.674 310.069C167.932 315.299 163.403 319.135 158.177 321.576C157.48 321.925 156.783 322.274 156.086 322.274C156.086 322.274 156.086 322.274 156.086 321.925C155.738 318.089 155.738 314.253 157.132 310.417C158.177 306.581 160.616 303.443 163.403 300.653L163.751 300.305C164.1 299.956 164.797 299.607 165.145 298.91C167.584 296.817 170.719 295.422 173.855 294.725C175.597 294.376 177.339 294.028 179.081 294.028C188.14 294.028 196.153 298.91 199.986 306.581C201.379 309.371 202.076 312.161 202.425 314.253C203.121 315.648 203.121 316.346 203.121 316.694Z" fill="#A2ABBC"/>
<path d="M175.249 368.305C173.158 370.746 169.674 370.746 166.539 370.746C169.674 367.607 167.932 357.494 156.783 358.54C141.453 355.751 142.847 339.71 158.177 334.828L160.616 334.13L160.964 334.479C162.009 337.617 163.751 340.407 165.494 342.499C159.222 347.73 167.932 349.125 172.113 353.31C175.597 355.402 178.733 364.12 175.249 368.305Z" fill="#A2ABBC"/>
<path d="M233.781 329.946C233.781 346.336 226.813 360.982 215.664 371.443C212.528 374.233 209.392 376.674 205.56 378.767C197.198 383.649 187.443 386.438 176.991 386.438C166.538 386.438 156.783 383.649 148.421 378.767C147.028 378.069 145.982 377.372 144.589 376.325C129.956 366.213 120.2 349.125 120.2 329.946C120.2 298.561 145.634 273.453 176.642 273.453C208.347 273.105 233.781 298.561 233.781 329.946Z" stroke="white" stroke-width="1.6434" stroke-miterlimit="10" stroke-linecap="round" stroke-linejoin="round"/>
<path d="M390.564 191.156C390.564 206.848 384.293 220.797 374.537 231.258C373.84 232.304 372.795 233.002 371.75 233.699C361.298 243.464 347.361 249.392 332.031 249.392C319.837 249.392 308.34 245.556 298.933 238.93C296.145 237.187 293.707 234.746 291.268 232.653C280.467 222.192 273.847 207.545 273.847 191.156C273.847 159.073 299.978 132.92 332.031 132.92C364.433 132.92 390.564 159.073 390.564 191.156Z" fill="#E9F0F8"/>
<path d="M390.564 191.155C390.564 208.242 383.247 223.237 371.75 234.048C361.298 243.812 347.361 249.74 332.031 249.74C319.837 249.74 308.34 245.904 298.933 239.278C283.603 228.817 273.847 211.381 273.847 191.504C273.847 159.422 299.978 133.268 332.031 133.268C364.085 133.268 390.564 159.073 390.564 191.155Z" fill="#DCE2F0"/>
<path d="M374.537 231.259C373.841 232.305 372.795 233.002 371.75 233.7C361.298 243.464 347.362 249.392 332.032 249.392C319.837 249.392 308.34 245.556 298.933 238.93C296.146 237.187 293.707 234.746 291.268 232.653C292.662 230.91 294.752 229.864 299.281 228.12L301.023 227.423C304.508 226.028 309.385 224.284 315.657 221.494C316.702 221.146 317.399 220.448 318.095 219.751C318.444 219.402 318.792 219.053 318.792 218.356C319.141 217.659 319.489 216.612 319.489 215.915V204.058C319.141 203.71 319.141 203.71 318.792 203.361C317.747 201.966 317.05 200.223 317.05 198.13L316.353 197.782C313.218 198.479 313.566 195.34 312.869 189.064C312.521 186.623 312.869 185.925 314.263 185.576L315.308 184.181C313.218 179.299 312.173 174.766 312.173 171.279C312.173 165.351 314.611 161.515 318.095 159.771C316.005 155.587 316.005 154.192 316.005 154.192C316.005 154.192 328.199 156.284 332.38 155.587C337.606 154.54 345.968 155.935 349.104 162.91C354.33 165.002 356.072 168.14 356.769 171.628C357.465 177.207 354.33 183.135 353.633 185.576V185.925C354.33 186.274 354.678 186.971 354.33 189.412C353.633 195.34 353.633 198.828 350.846 198.13L348.058 203.012C348.058 203.71 348.058 203.71 347.71 204.058C347.71 205.105 347.71 206.848 347.71 216.264C347.71 217.31 348.058 218.705 348.755 219.402C349.104 219.751 349.104 220.1 349.452 220.1C350.149 220.797 350.846 221.494 351.543 221.494C358.511 224.284 363.388 226.376 367.221 227.771C370.705 229.166 373.144 230.212 374.537 231.259Z" fill="white"/>
<path d="M374.537 231.259C373.841 232.305 372.795 233.002 371.75 233.7C361.298 243.464 347.362 249.392 332.032 249.392C319.837 249.392 308.34 245.556 298.933 238.93C296.146 237.187 293.707 234.746 291.268 232.653C292.662 230.91 294.752 229.864 299.281 228.12L301.023 227.423C304.508 226.028 309.385 224.284 315.657 221.494C316.702 221.146 317.399 220.448 318.095 219.751C321.58 224.633 327.154 227.771 333.774 227.771C340.045 227.771 345.62 224.633 349.104 220.1C349.8 220.797 350.497 221.494 351.194 221.494C358.162 224.284 363.04 226.377 366.872 227.771C370.705 229.166 373.144 230.212 374.537 231.259Z" fill="#EAEEF9"/>
<path d="M353.285 185.228C353.633 183.833 352.936 181.74 352.24 180.694C352.24 180.346 351.891 180.346 351.891 179.997C349.452 175.115 344.226 173.371 339.349 173.022C326.457 172.325 325.412 174.766 321.58 171.279C322.973 173.022 322.973 176.161 320.883 179.648C319.489 182.089 317.05 183.484 314.612 184.181C308.689 170.93 311.824 162.561 317.399 159.771C315.308 155.587 315.308 154.192 315.308 154.192C315.308 154.192 327.503 156.284 331.684 155.587C336.91 154.54 345.271 155.935 348.407 162.91C353.633 165.002 355.375 168.14 356.072 171.628C357.117 176.858 353.982 182.787 353.285 185.228Z" fill="#A2ABBC"/>
<path d="M319.837 215.915V204.058C319.489 203.71 319.489 203.71 319.141 203.361V202.664C319.837 203.71 320.534 204.756 321.579 205.453L330.986 212.079C333.077 213.823 336.213 213.823 338.303 212.079L347.013 204.407C347.362 204.058 347.71 204.058 348.058 203.71C348.058 204.756 348.058 206.499 348.058 215.915C348.058 216.612 348.058 216.961 348.407 217.658H319.837C319.489 216.961 319.837 216.612 319.837 215.915Z" fill="url(#paint1_linear_14_941)"/>
<path d="M390.564 191.155C390.564 208.242 383.247 223.237 371.75 234.048C361.298 243.812 347.361 249.74 332.031 249.74C319.837 249.74 308.34 245.904 298.933 239.278C283.603 228.817 273.847 211.381 273.847 191.504C273.847 159.422 299.978 133.268 332.031 133.268C364.085 133.268 390.564 159.073 390.564 191.155Z" stroke="white" stroke-width="1.6604" stroke-miterlimit="10" stroke-linecap="round" stroke-linejoin="round"/>
<path d="M0 231.608C0 242.767 9.05859 251.834 20.2076 251.834H199.289C201.031 251.834 202.773 252.531 203.818 253.577L228.904 278.685C229.6 279.731 230.994 280.08 232.388 279.382C233.433 279.034 234.478 277.639 234.478 276.593V160.469C234.478 149.31 225.42 140.244 214.27 140.244H20.2076C9.05859 140.244 0 149.31 0 160.469V231.608Z" fill="#CED6E2"/>
<path d="M148.852 56.7476C148.852 67.9067 157.91 76.9734 169.059 76.9734H199.289C201.031 76.9734 202.773 77.6708 203.818 78.717L228.903 103.825C229.6 104.871 230.994 105.22 232.387 104.522C233.433 104.173 234.478 102.779 234.478 101.732V20.2257C234.478 9.0667 225.419 0 214.27 0H169.059C157.91 0 148.852 9.0667 148.852 20.2257V56.7476Z" fill="#CED6E2"/>
<path opacity="0.7" d="M190.578 185.577H36.5824C35.1888 185.577 33.7952 184.182 33.7952 182.787V173.721C33.7952 172.326 35.1888 170.931 36.5824 170.931H190.578C191.972 170.931 193.366 172.326 193.366 173.721V182.787C193.366 184.531 192.32 185.577 190.578 185.577Z" fill="url(#paint2_linear_14_941)"/>
<path opacity="0.7" d="M131.349 223.587H36.5824C35.1888 223.587 33.7952 222.192 33.7952 220.798V211.731C33.7952 210.336 35.1888 208.941 36.5824 208.941H131.349C132.743 208.941 134.136 210.336 134.136 211.731V220.798C134.136 222.541 133.091 223.587 131.349 223.587Z" fill="url(#paint3_linear_14_941)"/>
<path d="M484.634 94.5606C484.634 104.673 476.62 112.694 466.517 112.694H305.552C304.159 112.694 302.417 113.391 301.372 114.438L278.725 137.104C278.028 137.802 276.635 138.15 275.589 137.802C274.544 137.453 273.847 136.407 273.847 135.361V30.745C273.847 20.6321 281.861 12.6116 291.965 12.6116H466.168C476.272 12.6116 484.285 20.6321 484.285 30.745V94.5606H484.634Z" fill="#CED6E2"/>
<path opacity="0.7" d="M448.747 53.4119H310.43C309.036 53.4119 307.991 52.3657 307.991 50.9708V42.6016C307.991 41.2067 309.036 40.1605 310.43 40.1605H448.747C450.141 40.1605 451.186 41.2067 451.186 42.6016V50.9708C451.186 52.3657 450.141 53.4119 448.747 53.4119Z" fill="url(#paint4_linear_14_941)"/>
<path opacity="0.7" d="M395.789 87.5862H310.43C309.036 87.5862 307.991 86.54 307.991 85.1451V76.7759C307.991 75.381 309.036 74.3348 310.43 74.3348H395.789C397.183 74.3348 398.228 75.381 398.228 76.7759V85.1451C398.228 86.1913 396.835 87.5862 395.789 87.5862Z" fill="url(#paint5_linear_14_941)"/>
<path d="M191.738 16.0247C179.261 16.0247 169.238 26.1501 169.238 38.5255C169.238 50.901 179.363 61.0264 191.738 61.0264C204.114 61.0264 214.239 51.0033 214.239 38.5255C214.239 26.1501 204.216 16.1269 191.738 16.0247ZM200.33 27.3774C202.375 27.3774 204.012 29.0138 204.012 31.0593C204.012 33.1049 202.375 34.7413 200.33 34.7413C198.284 34.7413 196.648 33.1049 196.648 31.0593C196.648 29.0138 198.284 27.3774 200.33 27.3774ZM183.249 27.2751C185.295 27.2751 186.931 28.9115 186.931 30.9571C186.931 33.0026 185.295 34.639 183.249 34.639C181.204 34.639 179.567 33.0026 179.567 30.9571C179.567 29.0138 181.204 27.2751 183.249 27.2751ZM204.728 43.7417C201.966 50.901 193.989 54.4807 186.829 51.8215C183.147 50.3896 180.181 47.4236 178.749 43.7417C178.442 42.8212 178.852 41.9007 179.772 41.5938C179.977 41.4916 180.181 41.4916 180.386 41.4916H203.091C204.012 41.4916 204.83 42.3098 204.83 43.2303C204.83 43.3325 204.83 43.5371 204.728 43.7417Z" fill="white"/>
<defs>
<linearGradient id="paint0_linear_14_941" x1="177.819" y1="354.804" x2="177.819" y2="350.603" gradientUnits="userSpaceOnUse">
<stop stop-color="white"/>
<stop offset="0.9913" stop-color="#D6DEEA"/>
</linearGradient>
<linearGradient id="paint1_linear_14_941" x1="333.717" y1="217.192" x2="333.717" y2="209.337" gradientUnits="userSpaceOnUse">
<stop stop-color="white"/>
<stop offset="0.9913" stop-color="#D6DEEA"/>
</linearGradient>
<linearGradient id="paint2_linear_14_941" x1="197.631" y1="178.212" x2="34.9203" y2="178.212" gradientUnits="userSpaceOnUse">
<stop offset="0.00651336" stop-color="#A6AEBE" stop-opacity="0"/>
<stop offset="1" stop-color="#A6AAB5"/>
</linearGradient>
<linearGradient id="paint3_linear_14_941" x1="136.819" y1="216.222" x2="34.5027" y2="216.222" gradientUnits="userSpaceOnUse">
<stop offset="0.00651336" stop-color="#A6AEBE" stop-opacity="0"/>
<stop offset="1" stop-color="#A6AAB5"/>
</linearGradient>
<linearGradient id="paint4_linear_14_941" x1="455.014" y1="46.7482" x2="309" y2="46.7482" gradientUnits="userSpaceOnUse">
<stop offset="0.00651336" stop-color="#A6AEBE" stop-opacity="0"/>
<stop offset="1" stop-color="#A6AAB5"/>
</linearGradient>
<linearGradient id="paint5_linear_14_941" x1="400.64" y1="80.9225" x2="308.627" y2="80.9225" gradientUnits="userSpaceOnUse">
<stop offset="0.00651336" stop-color="#A6AEBE" stop-opacity="0"/>
<stop offset="1" stop-color="#A6AAB5"/>
</linearGradient>
</defs>
</svg>
