<?xml version="1.0" standalone="no"?>
<!DOCTYPE svg PUBLIC "-//W3C//DTD SVG 20010904//EN"
 "http://www.w3.org/TR/2001/REC-SVG-20010904/DTD/svg10.dtd">
<svg version="1.0" xmlns="http://www.w3.org/2000/svg"
 width="708.000000pt" height="708.000000pt" viewBox="0 0 708.000000 708.000000"
 preserveAspectRatio="xMidYMid meet">
<metadata>
Created by potrace 1.14, written by Peter Selinger 2001-2017
</metadata>
<g transform="translate(0.000000,708.000000) scale(0.100000,-0.100000)"
fill="#000000" stroke="none">
<path d="M33 6564 c3 -5 54 -70 114 -145 59 -75 119 -151 133 -169 14 -18 30
-38 35 -44 6 -6 23 -29 40 -51 16 -22 37 -49 47 -60 9 -11 92 -114 183 -230
91 -115 179 -226 194 -245 16 -19 76 -96 135 -170 95 -121 171 -216 241 -305
14 -16 74 -93 135 -170 61 -77 116 -147 123 -155 7 -8 28 -35 47 -60 19 -25
37 -47 40 -50 3 -3 73 -90 155 -195 82 -104 160 -204 174 -221 30 -36 42 -52
91 -114 49 -62 61 -78 91 -114 14 -17 83 -105 154 -196 71 -91 132 -167 135
-170 3 -3 30 -37 61 -75 54 -68 56 -72 40 -91 -9 -11 -25 -33 -36 -48 -11 -16
-25 -33 -30 -40 -11 -11 -147 -182 -460 -576 -98 -124 -206 -259 -239 -301
-34 -41 -72 -90 -86 -109 -14 -18 -30 -38 -35 -44 -6 -6 -26 -31 -45 -56 -19
-25 -39 -50 -45 -56 -5 -6 -64 -79 -130 -163 -66 -84 -194 -246 -285 -360 -91
-114 -178 -224 -195 -246 -16 -21 -63 -79 -103 -129 -80 -100 -74 -92 -152
-191 -30 -38 -62 -79 -72 -90 -9 -11 -39 -49 -67 -85 -60 -76 -54 -68 -152
-190 -41 -52 -120 -151 -173 -219 l-98 -124 243 6 c134 4 262 9 284 12 22 2
65 7 95 10 30 3 69 8 85 10 17 3 48 8 70 11 22 2 57 7 79 10 150 20 465 98
666 164 377 126 762 316 1083 537 84 57 292 215 347 263 180 156 329 305 478
479 l106 123 21 -24 c11 -13 40 -48 65 -78 118 -142 307 -331 470 -471 70 -60
73 -63 170 -138 36 -28 70 -55 77 -60 38 -33 279 -190 384 -251 514 -300 1055
-485 1654 -565 17 -2 57 -7 90 -10 33 -3 78 -8 100 -11 22 -2 148 -7 280 -11
l240 -6 -30 35 c-17 19 -41 49 -55 67 -14 19 -153 194 -308 390 -156 196 -296
371 -310 390 -46 58 -243 305 -260 326 -10 11 -29 36 -43 55 -15 19 -35 45
-45 57 -11 12 -28 34 -39 49 -11 15 -25 32 -30 38 -6 6 -26 31 -45 56 -19 25
-37 47 -40 50 -3 3 -21 25 -40 50 -19 25 -40 52 -47 60 -27 33 -427 537 -452
569 -14 19 -31 39 -36 45 -6 6 -96 119 -200 251 -104 132 -210 265 -235 296
-25 30 -56 70 -70 89 -14 18 -49 62 -77 97 -29 36 -53 69 -53 74 0 8 51 80 70
99 8 8 186 232 268 338 72 91 97 123 117 146 6 6 35 42 65 81 30 38 62 79 72
90 9 11 112 142 229 290 118 149 221 278 229 288 8 10 22 27 30 37 8 10 69 87
135 171 66 83 239 301 384 483 144 182 275 346 290 365 44 57 201 255 219 276
9 11 29 36 43 55 15 19 35 45 45 57 31 36 47 55 99 123 28 36 52 67 55 70 3 3
14 16 25 29 l20 24 -265 -6 c-146 -3 -276 -8 -290 -11 -14 -2 -61 -7 -105 -11
-44 -3 -87 -8 -95 -10 -8 -2 -35 -6 -60 -9 -25 -3 -58 -8 -75 -11 -85 -14
-102 -17 -125 -22 -253 -45 -602 -152 -880 -270 -253 -108 -629 -318 -795
-446 -5 -4 -41 -31 -80 -59 -186 -137 -497 -423 -630 -578 -17 -19 -52 -61
-79 -93 -27 -32 -52 -56 -56 -55 -4 2 -31 32 -61 68 -116 141 -300 332 -420
435 -45 39 -91 79 -103 90 -13 11 -40 34 -61 50 -21 17 -43 35 -49 40 -53 50
-344 245 -501 336 -402 231 -943 427 -1365 494 -19 3 -60 10 -90 15 -65 11
-111 17 -205 26 -38 3 -81 8 -95 10 -50 10 -553 17 -547 8z"/>
</g>
</svg>
